<svg xmlns="http://www.w3.org/2000/svg" width="1200" height="630" viewBox="0 0 1200 630" role="img" aria-label="The Bird Job">
  <defs>
    <linearGradient id="bg" x1="0%" y1="0%" x2="100%" y2="100%">
      <stop offset="0%" stop-color="#ff6b2b"/>
      <stop offset="100%" stop-color="#ffb347"/>
    </linearGradient>
    <linearGradient id="tile" x1="0%" y1="0%" x2="100%" y2="100%">
      <stop offset="0%" stop-color="#11182e"/>
      <stop offset="100%" stop-color="#0a1022"/>
    </linearGradient>
  </defs>
  <rect width="1200" height="630" fill="#07070e"/>
  <rect x="110" y="110" width="170" height="170" rx="44" fill="url(#bg)"/>
  <path d="M155 198c0-21 16-36 36-36 8 0 15 2 21 7 5-5 11-8 19-8 17 0 30 13 30 31 0 21-17 35-38 35h-33c-20 0-35-12-35-29z" fill="url(#tile)"/>
  <path d="M219 167l19-13-8 24z" fill="url(#tile)"/>
  <text x="320" y="196" fill="#f8fafc" font-family="Syne, Arial, sans-serif" font-size="84" font-weight="700">The Bird Job</text>
  <text x="322" y="255" fill="#cbd5e1" font-family="DM Sans, Arial, sans-serif" font-size="34">AI Hiring Platform</text>
</svg>
